<svg xmlns="http://www.w3.org/2000/svg" xmlns:xlink="http://www.w3.org/1999/xlink" x="0px" y="0px" width="64px" height="64px" viewBox="0 0 64 64"><g stroke-width="3" transform="translate(0.5, 0.5)"><path d="M23.316,31.551a11.3,11.3,0,0,0-10,3.136l-6,6a11.312,11.312,0,0,0,0,16h0a11.316,11.316,0,0,0,16,0l6-6a11.307,11.307,0,0,0,3.137-10" fill="none" stroke="#444444" stroke-linecap="square" stroke-miterlimit="10" stroke-width="3" stroke-linejoin="miter"></path><path d="M31.551,23.316a11.3,11.3,0,0,1,3.136-10l6-6a11.312,11.312,0,0,1,16,0h0a11.316,11.316,0,0,1,0,16l-6,6a11.307,11.307,0,0,1-10,3.137" fill="none" stroke="#444444" stroke-linecap="square" stroke-miterlimit="10" stroke-width="3" stroke-linejoin="miter"></path><line data-color="color-2" x1="21" y1="43" x2="43" y2="21" fill="none" stroke="#444444" stroke-linecap="square" stroke-miterlimit="10" stroke-width="3" stroke-linejoin="miter"></line></g></svg>